<svg width="44" height="44" viewBox="0 0 44 44" fill="none" xmlns="http://www.w3.org/2000/svg">
<rect x="1" y="1" width="42" height="42" rx="5" stroke="#2D3648" stroke-width="2"/>
<path d="M13.6665 16.9998C13.6665 16.5396 14.0396 16.1665 14.4998 16.1665H29.4998C29.9601 16.1665 30.3332 16.5396 30.3332 16.9998C30.3332 17.4601 29.9601 17.8332 29.4998 17.8332H14.4998C14.0396 17.8332 13.6665 17.4601 13.6665 16.9998Z" fill="#2D3648"/>
<path d="M13.6665 21.9998C13.6665 21.5396 14.0396 21.1665 14.4998 21.1665H29.4998C29.9601 21.1665 30.3332 21.5396 30.3332 21.9998C30.3332 22.4601 29.9601 22.8332 29.4998 22.8332H14.4998C14.0396 22.8332 13.6665 22.4601 13.6665 21.9998Z" fill="#2D3648"/>
<path d="M14.4998 26.1665C14.0396 26.1665 13.6665 26.5396 13.6665 26.9998C13.6665 27.4601 14.0396 27.8332 14.4998 27.8332H29.4998C29.9601 27.8332 30.3332 27.4601 30.3332 26.9998C30.3332 26.5396 29.9601 26.1665 29.4998 26.1665H14.4998Z" fill="#2D3648"/>
</svg>
